<?xml version="1.0" encoding="UTF-8" standalone="no"?>
<!-- Created with Inkscape (http://www.inkscape.org/) -->

<svg
   xmlns:dc="http://purl.org/dc/elements/1.1/"
   xmlns:cc="http://creativecommons.org/ns#"
   xmlns:rdf="http://www.w3.org/1999/02/22-rdf-syntax-ns#"
   xmlns:svg="http://www.w3.org/2000/svg"
   xmlns="http://www.w3.org/2000/svg"
   xmlns:sodipodi="http://sodipodi.sourceforge.net/DTD/sodipodi-0.dtd"
   xmlns:inkscape="http://www.inkscape.org/namespaces/inkscape"
   width="165.10001mm"
   height="143.17738mm"
   viewBox="0 0 165.10001 143.17739"
   version="1.1"
   id="svg8"
   inkscape:version="0.92.5 (2060ec1f9f, 2020-04-08)"
   sodipodi:docname="comillas.svg">
  <defs
     id="defs2" />
  <sodipodi:namedview
     id="base"
     pagecolor="#ffffff"
     bordercolor="#666666"
     borderopacity="1.0"
     inkscape:pageopacity="0.0"
     inkscape:pageshadow="2"
     inkscape:zoom="0.35"
     inkscape:cx="-327.42858"
     inkscape:cy="424.00049"
     inkscape:document-units="mm"
     inkscape:current-layer="layer1"
     showgrid="false"
     inkscape:window-width="1920"
     inkscape:window-height="1007"
     inkscape:window-x="0"
     inkscape:window-y="0"
     inkscape:window-maximized="1" />
  <metadata
     id="metadata5">
    <rdf:RDF>
      <cc:Work
         rdf:about="">
        <dc:format>image/svg+xml</dc:format>
        <dc:type
           rdf:resource="http://purl.org/dc/dcmitype/StillImage" />
        <dc:title></dc:title>
      </cc:Work>
    </rdf:RDF>
  </metadata>
  <g
     inkscape:label="Capa 1"
     inkscape:groupmode="layer"
     id="layer1"
     transform="translate(-25.400001,-30.148937)">
    <g
       id="g90"
       transform="matrix(6.8791667,0,0,5.9657242,25.400001,30.148937)">
      <path
         id="path76"
         d="M 0,0 H 24 V 24 H 0 Z"
         inkscape:connector-curvature="0"
         style="fill:none" />
      <path
         id="path78"
         d="M 4.583,17.321 C 3.553,16.227 3,15 3,13.011 3,9.511 5.457,6.374 9.03,4.823 l 0.893,1.378 c -3.335,1.804 -3.987,4.145 -4.247,5.621 0.537,-0.278 1.24,-0.375 1.929,-0.311 1.804,0.167 3.226,1.648 3.226,3.489 a 3.5,3.5 0 0 1 -3.5,3.5 c -1.073,0 -2.099,-0.49 -2.748,-1.179 z m 10,0 C 13.553,16.227 13,15 13,13.011 c 0,-3.5 2.457,-6.637 6.03,-8.188 l 0.893,1.378 c -3.335,1.804 -3.987,4.145 -4.247,5.621 0.537,-0.278 1.24,-0.375 1.929,-0.311 1.804,0.167 3.226,1.648 3.226,3.489 a 3.5,3.5 0 0 1 -3.5,3.5 c -1.073,0 -2.099,-0.49 -2.748,-1.179 z"
         inkscape:connector-curvature="0"
         style="fill:#000000" />
    </g>
    <path
       style="opacity:1;fill:#ffffff;fill-opacity:1;stroke-width:0;stroke-miterlimit:4;stroke-dasharray:none"
       d="M 174.76899,413.75604 C 151.30166,410.7337 130.04745,399.63924 112.81171,381.41498 94.651081,362.21279 85.082514,342.06346 81.23223,314.91542 70.386956,238.44631 120.19365,164.16164 211.32871,120.88179 c 11.53394,-5.47744 22.02378,-9.30821 23.31076,-8.51281 1.28699,0.7954 6.53576,7.28871 11.66394,14.42958 l 9.32397,12.9834 -12.24226,6.17111 c -44.83275,22.59939 -77.92474,58.54329 -91.34214,99.21413 -7.62159,23.10257 -7.57763,23.18711 9.72252,18.6995 18.60543,-4.82618 30.65795,-4.82148 51.2272,0.02 53.73206,12.64709 81.31806,61.71127 59.21698,105.32269 -16.52317,32.60468 -54.68861,50.05268 -97.44069,44.54668 z"
       id="path92"
       inkscape:connector-curvature="0"
       transform="matrix(0.26458333,0,0,0.26458333,25.400001,30.148937)" />
    <path
       style="opacity:1;fill:#ffffff;fill-opacity:1;stroke-width:0;stroke-miterlimit:4;stroke-dasharray:none"
       d="m 434.76899,413.75604 c -23.46733,-3.02234 -44.72154,-14.1168 -61.95728,-32.34106 -18.16063,-19.20219 -27.7292,-39.35152 -31.57948,-66.49956 -10.84527,-76.46911 38.96142,-150.75378 130.09648,-194.03363 11.53394,-5.47744 22.02378,-9.30821 23.31076,-8.51281 1.28699,0.7954 6.53576,7.28871 11.66394,14.42958 l 9.32397,12.9834 -12.24226,6.17111 c -44.83275,22.59939 -77.92474,58.54329 -91.34214,99.21413 -7.62159,23.10257 -7.57763,23.18711 9.72252,18.6995 18.60543,-4.82618 30.65795,-4.82148 51.2272,0.02 53.73206,12.64709 81.31806,61.71127 59.21698,105.32269 -16.52317,32.60468 -54.68861,50.05268 -97.44069,44.54668 z"
       id="path94"
       inkscape:connector-curvature="0"
       transform="matrix(0.26458333,0,0,0.26458333,25.400001,30.148937)" />
    <path
       style="opacity:1;fill:#ffffff;fill-opacity:1;stroke-width:0;stroke-miterlimit:4;stroke-dasharray:none"
       d="M 231.75195 115.75977 C 228.12862 115.72581 223.58307 117.26956 216.9375 119.9668 C 191.05501 130.47174 152.11956 158.02683 130.59766 181.07227 C 90.360492 224.15783 73.987368 274.56459 84.355469 323.42969 C 93.299671 365.58391 125.60886 400.39223 165.0957 410.41406 C 200.10703 419.3 243.19261 406.22558 262.58203 380.83203 C 304.47689 325.964 255.81298 258.19261 178.42773 263.63477 C 166.56381 264.4691 154.92942 265.59927 152.57227 266.14648 C 145.20105 267.85773 147.9865 248.73248 158.26758 227.05273 C 170.36509 201.54265 208.30209 162.82295 234.76172 148.98047 L 252.66602 139.61328 L 247.61914 131.04297 C 241.26567 120.25552 237.79084 115.81635 231.75195 115.75977 z "
       transform="matrix(0.26458333,0,0,0.26458333,25.400001,30.148937)"
       id="path96" />
    <path
       style="opacity:1;fill:none;fill-opacity:1;stroke-width:0;stroke-miterlimit:4;stroke-dasharray:none"
       d="m 167.4929,411.41112 c -38.81034,-8.15817 -74.13201,-45.53755 -83.137537,-87.9808 -10.368101,-48.8651 6.005882,-99.27172 46.243047,-142.35728 21.5219,-23.04544 60.4559,-50.60091 86.33839,-61.10585 17.69266,-7.18092 20.52501,-6.16989 30.58934,10.91912 l 4.95472,8.41301 -19.09125,11.06439 c -37.34321,21.64235 -69.39763,57.86997 -80.97333,91.51531 -8.60875,25.02178 -9.37208,24.21815 20.97714,22.08481 20.4157,-1.43508 30.21761,-0.79512 42.49698,2.77459 56.91889,16.54677 79.60283,71.27533 47.19083,113.85525 -18.43657,24.22028 -61.27323,38.03071 -95.58833,30.81745 z"
       id="path99"
       inkscape:connector-curvature="0"
       transform="matrix(0.26458333,0,0,0.26458333,25.400001,30.148937)" />
  </g>
</svg>
