<svg xmlns="http://www.w3.org/2000/svg" height="197.333" width="918.667"><path d="M166.839 10.203l-39.68 16.834s-13.378-12.625-29.46-14.73c-16.083-2.104-28.559.451-35.172 3.307-6.613 2.856-25.402 16.534-29.009 29.009 5.26.601 17.285 3.307 17.285 3.307s7.365-12.776 22.245-16.684c15.332-3.457 24.951.45 24.951.45s10.522 2.857 19.84 12.025c3.608-2.254 49-33.518 49-33.518zM129.864 67.32l14.58-12.476s4.659 6.764 2.404 23.748c-2.254 16.985-6.613 22.245-6.613 22.245l-5.561 8.718-7.215-25.402s3.457-6.012 2.405-16.834zm-2.405 54.56l-36.073 61.325s-4.36 6.162-9.77-1.353c-5.411-7.515-32.166-53.359-32.166-53.359L1.503 149.085l49-32.917s18.187 23.147 21.493-2.104c6.463 1.052 21.344 6.614 38.328-5.561 4.96 3.307 2.706 9.92 17.135 13.377zM42.837 68.07s-.3 9.32 2.104 12.326c-2.555 2.405-8.717 4.058-7.966 9.469-4.81.15-8.567.15-8.567.15s-4.66-14.279-1.052-28.407c7.515 3.607 15.481 6.463 15.481 6.463z" fill="none"/><path d="M23.899 96.328l21.794 10.07-1.654 4.51 6.915-1.203 10.822 10.522s7.364 1.503 5.56-3.457c-1.803-4.96-3.607-12.927-3.607-12.927L98.3 86.107l23.749 27.957s7.816 5.712 7.215-4.208c-2.405-10.07-11.724-39.08-11.724-39.08l30.06-26.003s7.366-13.828-9.92-7.966c-15.33 6.764-35.922 24.8-35.922 24.8l-73.05-11.722s-5.862 1.503-4.359 3.457c1.504 1.954 53.209 24.35 53.209 24.35L59.52 90.916s-12.325-7.064-16.534-3.908c-4.208 3.157 1.654 9.169 1.654 9.169zM295.35 47.78s-10.822.3-11.874 7.966c.15 8.116 5.11 11.723 10.22 11.874 5.111.15 13.077-3.457 13.077-9.47 0-6.012-5.862-11.122-11.423-10.37zm101.532.335s-10.822.3-11.874 7.966c.15 8.117 5.11 11.724 10.22 11.875 5.11.15 13.077-3.457 13.077-9.47 0-6.012-5.862-11.122-11.423-10.37zm378.92.451s-10.822.3-11.874 7.966c.15 8.117 5.11 11.724 10.22 11.874 5.11.15 13.077-3.457 13.077-9.469s-5.862-11.122-11.423-10.37zm102.774 43.276s-9.164.328-10.055 8.703c.127 8.867 4.327 12.808 8.655 12.972 4.327.164 11.073-3.777 11.073-10.345 0-6.568-4.964-12.151-9.673-11.33zM207.271 60.255l27.356 68.088 16.984.3 27.506-68.388h-20.742l-13.828 39.53-16.083-39.68zm77.257 16.233l.451 51.855s19.99.601 19.99-.15V76.037zm67.036 4.359s-4.509-6.313-15.932-6.313-20.14 17.886-20.14 17.886-3.458 9.77.15 20.592c3.607 10.822 17.585 17.435 17.585 17.435s13.227 1.053 18.187-6.312c-.3 3.607.15 5.26.15 5.26l21.043-.15-.45-53.96h-21.044z" fill="none"/><path d="M341.945 91.067s-7.966.752-8.868 11.724c-.902 10.973 10.972 10.973 10.972 10.973s8.117 1.503 8.267-10.522c.15-12.024-10.371-12.175-10.371-12.175zm43.889-14.73l-.45 50.052s.9 7.065-11.274 8.117c3.457 7.515 6.614 15.481 6.614 15.481s16.834 4.66 23.748-12.776c.751-6.613 1.653-61.174 1.653-61.174zM433.48 97.53s16.384 1.053 16.083.301c-.3-.751-1.352-6.463-7.815-6.914-6.464-.45-8.267 6.614-8.267 6.614z" fill="none"/><path d="M436.186 107.601l30.663-.15s4.96-11.273-3.006-20.893c-7.967-9.62-12.175-12.325-22.246-12.325-10.07 0-26.904 8.718-27.506 28.107-.6 19.39 18.338 28.709 28.408 28.258 10.07-.451 19.54-3.006 22.245-7.215-4.058-5.712-8.567-13.527-8.567-13.527s0 2.404-10.822 2.705c-10.822.3-9.169-4.96-9.169-4.96zm69.892-13.828s-19.99-8.718-15.782-2.405c4.209 6.463 29.16 5.561 28.859 19.39-.3 13.828-15.482 19.84-25.853 19.69-10.37-.15-22.696-6.764-23.598-9.47 2.105-3.757 11.574-9.92 11.574-9.92s8.116 4.81 12.175 5.712c4.058.901 5.711-3.608 5.711-3.608s1.052-3.457-8.717-3.457c-7.666-3.757-17.135-2.705-19.54-16.233-2.405-13.527 17.285-19.239 23.748-19.088 6.463.15 18.337 3.156 22.696 9.018-2.104 2.254-11.273 10.37-11.273 10.37zm54.411-33.218l-.451 67.938 20.592.301.15-32.466 11.724 18.037h6.313l12.625-18.338-.6 32.767h21.493l-.902-68.99-17.736.15-16.534 28.709-18.036-27.957zm94.692 3.157c.902-.451 18.939-15.181 18.939-15.181l8.567 11.123-21.944 13.076zm43.439 12.926l17.585 24.5-18.638 27.506 23.147-.15 6.313-10.823 6.163 11.574 24.65-.3-19.24-26.905 18.037-25.552-24.199-.451-4.509 10.37-5.11-9.92zM833.894 97.08s-1.503-6.163-10.22-5.261c-8.718.902-8.718 7.816-8.568 12.325.15 4.51 5.712 8.868 10.822 8.567 5.11-.3 8.117-4.208 8.117-4.208l10.972 12.475s-2.705 10.522-22.696 9.47c-19.99-1.053-26.304-14.13-27.055-25.853-.752-11.724 5.712-30.662 26.303-29.91 20.592.75 24.05 8.717 24.05 8.717zm44.19-21.644s-10.972-2.105-20.742 7.064c-9.77 9.169-7.515 27.806-7.515 27.806s2.555 11.123 14.73 15.933c12.174 4.81 21.944 5.26 29.46.3 7.515-4.96 12.024-9.018 13.677-18.186 1.654-9.17-1.954-17.737-6.162-23.749-4.209-6.012-16.233-8.868-23.448-9.168zM659.71 97.212s16.383 1.052 16.082.3c-.3-.751-1.353-6.463-7.816-6.914-6.463-.45-8.267 6.614-8.267 6.614z" fill="none"/><path d="M662.415 107.282l30.662-.15s4.96-11.273-3.006-20.892c-7.966-9.62-12.175-12.326-22.245-12.326s-26.905 8.718-27.506 28.108c-.601 19.389 18.337 28.708 28.408 28.257 10.07-.45 19.54-3.006 22.245-7.215-4.058-5.711-8.567-13.527-8.567-13.527s0 2.405-10.822 2.705c-10.822.301-9.169-4.96-9.169-4.96zm103.65-31.838l.45 51.855s19.991.602 19.991-.15V74.993z" fill="none"/><path d="M222.427 95.177c-7.114-17.678-12.93-32.57-12.926-33.093.004-.524 4.16-.794 9.237-.601l9.23.35 7.905 19.531c4.348 10.742 8.249 19.534 8.669 19.54.42.005 3.872-8.919 7.671-19.831l6.908-19.84h8.862c4.874 0 8.868.406 8.875.902.007.496-5.81 15.375-12.927 33.066l-12.938 32.164-7.816-.024-7.816-.024zm63.626 18.663c-.429-7.44-.782-18.475-.785-24.522-.006-12.7-.234-12.454 11.516-12.454h7.717v50.503h-17.669zm2.441-49.3c-1.12-.827-2.553-3.31-3.183-5.52-.995-3.488-.765-4.395 1.753-6.913 5.854-5.854 18.64-2.069 18.64 5.518 0 4.215-5.261 8.417-10.538 8.417-2.549 0-5.551-.676-6.672-1.503zm41.743 63.012c-6.363-3.983-12.456-11.157-13.84-16.293-2.338-8.685-.91-17.628 3.88-24.302 2.322-3.236 6.025-7.101 8.23-8.59 6.302-4.255 15.372-3.24 21.387 2.395l2.705 2.534V80.08c0-3.194.059-3.216 8.838-3.216h8.839l.781 11.007c.43 6.054.781 17.688.781 25.853v14.846h-9.62c-9.458 0-9.619-.05-9.619-3.007 0-1.653-.54-3.006-1.202-3.006-.662 0-1.203.528-1.203 1.172 0 1.717-6.264 4.668-11.597 5.463-3.404.508-5.625.072-8.36-1.64zm19.47-15.008c6.068-5.22 4.073-18.27-3.257-21.307-4.81-1.992-9.157-.534-11.92 3.997-4.704 7.715-2.237 16.628 5.197 18.777 5.773 1.67 6.448 1.57 9.98-1.467zm29.403 30.903c-3.036-6.861-3.096-8.865-.267-8.865 1.208 0 3.361-1.24 4.785-2.757 2.462-2.62 2.606-4.03 2.916-28.558l.325-25.801 9.194-.35 9.194-.348-.465 14.778a19680.8 19680.8 0 00-.934 30.624c-.413 13.954-.785 16.29-3.112 19.558-3.41 4.788-8.33 7.283-14.362 7.283-4.568 0-4.94-.283-7.275-5.564zm12.569-77.654c-3.557-2.04-5.33-4.773-5.373-8.282-.085-6.926 10.968-10.756 17.096-5.925 5.687 4.483 3.913 11.712-3.571 14.557-3.712 1.411-5.192 1.348-8.152-.35zm41.587 61.914c-10.222-3.61-18.113-14.424-18.133-24.85-.019-9.691 7.228-20.87 16.16-24.927 5.789-2.63 14.84-2.91 20.3-.629 4.425 1.85 13.751 11.839 14.744 15.793.359 1.43.482 4.993.273 7.916l-.38 5.314-15.331.337c-14.232.312-15.331.503-15.331 2.659 0 3.118 7.182 4.934 14.713 3.72l5.695-.918 3.586 5.513c4.334 6.662 3.726 7.62-6.51 10.277-8.757 2.272-12.895 2.23-19.786-.205zm16.49-30.641c.214-1.11-.727-3.132-2.09-4.496-4.22-4.22-12.405-2.682-14.416 2.71-.918 2.462-.556 2.672 5.78 3.338 9.123.96 10.275.793 10.727-1.552zm35.284 30.86c-6.572-1.814-13.399-5.231-13.399-6.706 0-1.165 8.274-8.282 9.63-8.282.62 0 3.51 1.157 6.423 2.572 5.813 2.825 10.811 2.429 12.111-.96 1.086-2.829-.767-4.257-7.892-6.08-11.194-2.865-16.056-5.649-18.366-10.517-2.59-5.456-1.803-11.22 2.02-14.81 4.092-3.84 12.94-7.425 18.402-7.455 5.997-.032 15.834 2.855 19.383 5.689l2.631 2.1-5.093 4.382-5.094 4.382-7.512-2.463c-5.589-1.833-7.861-2.115-8.873-1.103-2.384 2.384 2.335 5.917 12.366 9.257 14.355 4.781 18.423 9.256 15.479 17.027-4.144 10.937-18.557 16.739-32.217 12.967zm75.998-15.177c.433-8.04.786-22.92.786-33.067v-18.45h16.382l8.943 13.943c4.919 7.668 9.309 14.168 9.755 14.445.447.276 4.506-5.994 9.02-13.933l8.207-14.434 8.116-.01 8.117-.01.004 15.932c.002 8.763.357 23.643.788 33.067l.784 17.135h-19.547l-.334-16.982-.334-16.982-6.591 9.767c-8.64 12.803-9.884 12.834-18.323.449l-6.35-9.32-.334 16.534-.334 16.534h-19.541zm102.392 15.88c-11.898-2.835-22.204-14.736-22.238-25.68-.016-5.378 2.997-13.124 6.861-17.639 5.902-6.894 12.553-10.032 21.108-9.959 7.512.064 10.414 1.436 16.492 7.795 6.245 6.532 7.727 10.41 7.37 19.27l-.132 3.307h-15.632c-14.49 0-15.632.165-15.632 2.258 0 4.148 3.044 5.31 12.353 4.712l8.72-.56 3.396 5.453c3.22 5.174 3.283 5.534 1.224 7.04-4.251 3.11-17.984 5.41-23.89 4.003zm13.14-31.182c.361-.583-.458-2.477-1.82-4.208-4.337-5.514-15.528-3.315-15.528 3.05 0 1.944 1.036 2.22 8.346 2.22 4.59 0 8.642-.478 9.002-1.062zm-17.89-30.089l-1.807-3.494 8.548-6.907 8.55-6.907 2.279 2.886c5.027 6.363 5.075 6.244-4.978 12.268-5.184 3.107-9.731 5.648-10.105 5.648-.374 0-1.494-1.572-2.488-3.494zm72.065 55.155c-1.688-3.331-3.599-5.73-4.246-5.33-.647.4-2.262 2.855-3.589 5.456l-2.412 4.728h-10.267c-7.88 0-10.064-.35-9.39-1.503.483-.827 4.371-6.549 8.64-12.715 8.914-12.876 9.028-11.055-1.61-25.763l-6.742-9.32h21.457l2.17 4.81c1.192 2.646 2.574 4.81 3.069 4.81.495 0 1.901-2.432 3.124-5.406l2.223-5.407 8.62-.004c13.428-.007 13.366-.222 3.828 13.309l-8.407 11.926 9.004 12.5 9.004 12.502-3.66.732c-2.012.402-6.828.732-10.703.732h-7.044zm36.697-20.998v-24.65l2.706-.011c1.488-.006 5.546-.352 9.018-.769l6.313-.758v50.838h-18.037zm1.565-36.075c-3.144-2.203-4.595-8.007-2.827-11.31.717-1.34 3.47-3.019 6.118-3.732 5.916-1.593 10.598.259 12.924 5.111 1.953 4.075.463 7.339-4.529 9.92-4.457 2.305-8.405 2.308-11.686.01zm47.396 63.02c-12.71-2.993-20.102-12.447-20.102-25.708 0-15.559 10.74-27.06 25.29-27.083 5.654-.01 15.848 2.703 19.737 5.251l3.133 2.053-5.037 5.973c-4.572 5.422-5.222 5.806-7.04 4.16-1.16-1.05-4.28-1.812-7.41-1.812-7.167 0-10.637 3.475-10.637 10.653 0 8.871 8.15 14.303 15.76 10.506 2.117-1.056 4-1.92 4.185-1.92.185 0 2.345 2.451 4.8 5.448l4.464 5.448-2.679 2.851c-4.455 4.743-14.665 6.487-24.464 4.18zm50.437-2.833c-8.378-3.445-11.078-5.716-14.299-12.026-1.973-3.867-2.283-6.087-1.67-11.958 1.65-15.777 9.285-23.766 23.482-24.568 14.801-.837 23.91 3.563 29.266 14.135 3.788 7.478 4.278 14.671 1.457 21.422-2.38 5.695-4.73 8.294-11.312 12.512-7.039 4.51-16.707 4.684-26.924.483zm18.35-14.6c3.066-2.58 3.699-3.99 3.699-8.241 0-10.747-10.667-15.44-18.13-7.977-3.768 3.768-4.264 6.38-2.228 11.735 3.132 8.238 10 10.086 16.658 4.483zM42.369 45.264c-3.638-.673-6.81-1.385-7.051-1.582-.241-.198.72-2.233 2.134-4.522 4.062-6.572 17.269-18.204 24.952-21.977 6.275-3.08 8.515-3.492 21.106-3.873 16.87-.51 23.462 1.168 35.404 9.012 4.39 2.883 8.416 5.242 8.946 5.242.53 0 5.973-2.172 12.094-4.827 6.122-2.655 11.547-4.684 12.055-4.51.509.176-6.908 5.622-16.482 12.103l-17.406 11.784-3.958-3.018c-2.177-1.66-7.181-4.528-11.122-6.373-6.293-2.947-8.552-3.35-18.587-3.316-13.972.047-19.99 2.402-28.897 11.308-3.348 3.349-6.198 6.017-6.331 5.93-.134-.086-3.22-.708-6.857-1.38zM28.333 85.582c-1.03-3.983-1.272-20.261-.316-21.22.373-.373 3.711.514 7.418 1.973l6.738 2.652.399 5.74c.353 5.095.027 6.014-2.909 8.183-1.818 1.344-3.306 3.239-3.306 4.211 0 1.16-1.233 1.768-3.585 1.768-2.901 0-3.747-.63-4.44-3.307zm51.547 91.386c-2.565-3.803-10.238-16.383-17.05-27.957-6.813-11.573-12.527-21.215-12.698-21.425-.171-.21-7.452 2.667-16.18 6.395-8.728 3.727-16.092 6.553-16.365 6.281-.272-.272 6.914-5.42 15.97-11.438l16.463-10.942 4.124 3.62c4.991 4.383 8.748 5.933 12.193 5.032 2.657-.695 6.093-5.985 6.093-9.382 0-1.576.806-1.757 4.51-1.015 9 1.804 18.94.859 26.272-2.498l6.96-3.187 4.276 4.831c2.352 2.657 5.786 5.376 7.631 6.041 3.023 1.09 3.213 1.48 1.925 3.927-2.79 5.3-30.363 52.07-32.615 55.324-3.501 5.059-6.243 4.2-11.509-3.607z" fill="#fff"/><path d="M134.496 104.513c-4.51-13.274-5.688-19.821-4.45-24.74.717-2.847 1.304-6.764 1.304-8.706 0-2.788 1.376-4.706 6.551-9.127l6.551-5.597.821 4.374c1.436 7.652-.203 25.828-2.973 32.982-3.195 8.251-6.92 13.414-7.804 10.814zM41.477 45.146l-6.957-1.349 3.494-5.41c3.9-6.039 8.972-11.036 17.034-16.784 9.048-6.45 12.771-7.546 27.764-8.17 16.274-.678 23.235.862 33.56 7.424 11.94 7.587 10.382 7.459 23.381 1.926 6.455-2.747 11.956-4.773 12.226-4.503 1.105 1.104-33.812 23.91-35.105 22.93-12.23-9.28-22.768-12.911-34.972-12.05-10.93.772-17.951 3.886-26.069 11.564-3.535 3.344-6.646 6.01-6.913 5.925-.267-.085-3.616-.76-7.443-1.503zM28.144 85.131c-1.042-5.208-.946-21.493.127-21.493.483 0 3.666 1.155 7.073 2.567 5.947 2.465 6.225 2.79 6.953 8.098.694 5.064.452 5.817-2.865 8.917-1.992 1.862-3.623 3.9-3.623 4.527 0 .628-1.555 1.142-3.457 1.142-2.91 0-3.576-.595-4.208-3.758zm48.299 86.492c-4.258-6.815-11.949-19.56-17.09-28.324-5.143-8.762-9.462-15.932-9.6-15.932-.138 0-7.151 2.976-15.586 6.614-8.434 3.637-15.976 6.613-16.76 6.613-.784 0 6.344-5.187 15.84-11.527L50.51 117.54l3.772 3.638c7.665 7.392 14.523 6.97 17.177-1.057 1.106-3.345 1.944-4.121 4.208-3.895 12.515 1.247 20.217.475 27.397-2.747l7.428-3.334 3.652 4.43c2.008 2.437 5.404 5.365 7.545 6.507l3.893 2.077-17.717 30.06c-14.89 25.264-18.193 30.12-20.7 30.429-2.61.321-3.949-1.18-10.723-12.025z" fill="#06f"/><path d="M56.428 113.72c-3.981-4.057-5.795-5.104-8.083-4.667-2.347.449-2.797.164-2.2-1.393.584-1.522-1.223-2.877-8.099-6.078l-8.85-4.12 8.786-.078 8.786-.078-1.872-2.672c-1.03-1.47-1.872-3.635-1.872-4.81 0-2.942 5.944-2.835 11.922.215l4.612 2.353 9.881-7.371c9.57-7.14 9.792-7.416 7.064-8.798-1.55-.785-13.504-6.186-26.565-12.003C36.876 58.404 26.19 53.188 26.19 52.63c0-1.806 6.018-1.143 41.122 4.532l34.508 5.58 7.577-6.01c16.943-13.439 33.416-22.386 37.065-20.131.646.4 1.174 2.015 1.174 3.59 0 2.159-3.485 5.898-14.128 15.158-7.771 6.76-14.832 12.926-15.691 13.7-1.27 1.144-.894 3.523 2.014 12.728 9.137 28.928 9.733 32.364 5.616 32.364-1.002 0-7.339-6.493-14.082-14.43-6.742-7.935-12.667-14.428-13.166-14.428-.5 0-8.748 4.082-18.331 9.072l-17.423 9.072 2.152 7.762 2.153 7.762h-2.595c-1.473 0-4.812-2.26-7.727-5.23z" fill="#5fbcd3"/></svg>