<svg xmlns="http://www.w3.org/2000/svg" height="175.38" width="165.336"><path d="M165.336 0l-39.68 16.834S112.277 4.21 96.195 2.104C80.112 0 67.636 2.555 61.023 5.411 54.411 8.267 35.622 21.945 32.015 34.42c5.26.601 17.285 3.307 17.285 3.307s7.365-12.776 22.245-16.684c15.332-3.457 24.951.45 24.951.45s10.521 2.856 19.84 12.025c3.608-2.254 49-33.518 49-33.518zM128.36 57.116l14.58-12.475s4.66 6.763 2.405 23.748c-2.254 16.984-6.613 22.245-6.613 22.245l-5.561 8.718-7.215-25.402s3.457-6.012 2.405-16.834zm-2.404 54.561l-36.073 61.325s-4.36 6.162-9.77-1.353c-5.411-7.515-32.166-53.359-32.166-53.359L0 138.882l49-32.917s18.187 23.147 21.493-2.104c6.463 1.052 21.344 6.613 38.328-5.561 4.96 3.306 2.706 9.92 17.135 13.377zM41.334 57.868s-.3 9.319 2.104 12.325c-2.555 2.405-8.717 4.058-7.966 9.469-4.81.15-8.567.15-8.567.15s-4.66-14.279-1.052-28.408c7.515 3.608 15.481 6.464 15.481 6.464z" fill="none"/><path d="M22.396 86.125l21.794 10.07-1.654 4.51 6.914-1.203 10.822 10.522s7.365 1.503 5.562-3.457c-1.804-4.96-3.608-12.927-3.608-12.927l34.57-17.736 23.749 27.957s7.816 5.712 7.215-4.209c-2.405-10.07-11.724-39.079-11.724-39.079l30.06-26.003s7.366-13.828-9.92-7.966c-15.33 6.764-35.922 24.8-35.922 24.8L27.205 39.681s-5.862 1.503-4.359 3.457c1.503 1.954 53.209 24.35 53.209 24.35L58.018 80.713s-12.325-7.064-16.534-3.908c-4.208 3.156 1.654 9.169 1.654 9.169z" fill="none"/><path d="M40.866 35.061c-3.638-.673-6.81-1.385-7.051-1.582-.241-.198.72-2.233 2.134-4.522 4.062-6.572 17.269-18.204 24.952-21.977 6.275-3.081 8.515-3.492 21.106-3.873 16.87-.51 23.462 1.168 35.404 9.012 4.39 2.883 8.416 5.242 8.946 5.242.53 0 5.973-2.172 12.094-4.827 6.122-2.655 11.547-4.684 12.055-4.51.509.176-6.908 5.622-16.482 12.103l-17.406 11.784-3.958-3.018c-2.177-1.66-7.181-4.528-11.122-6.374-6.293-2.946-8.552-3.35-18.587-3.315-13.972.047-19.99 2.402-28.897 11.308-3.348 3.349-6.198 6.017-6.331 5.93-.134-.087-3.22-.708-6.857-1.38zM26.83 75.38c-1.03-3.984-1.272-20.263-.316-21.22.373-.374 3.711.513 7.417 1.972l6.74 2.652.398 5.74c.353 5.095.027 6.014-2.909 8.183-1.818 1.344-3.306 3.239-3.306 4.211 0 1.16-1.233 1.768-3.585 1.768-2.901 0-3.747-.63-4.44-3.307zm51.547 91.385c-2.565-3.803-10.238-16.383-17.05-27.957-6.813-11.574-12.527-21.215-12.698-21.425-.171-.21-7.452 2.667-16.18 6.394-8.729 3.728-16.092 6.554-16.365 6.282-.272-.272 6.914-5.42 15.97-11.438l16.463-10.942 4.124 3.62c4.991 4.383 8.748 5.933 12.193 5.032 2.657-.695 6.093-5.985 6.093-9.383 0-1.575.806-1.756 4.509-1.014 9.001 1.804 18.94.858 26.273-2.498l6.96-3.187 4.276 4.831c2.352 2.657 5.786 5.376 7.631 6.041 3.023 1.09 3.213 1.48 1.925 3.927-2.79 5.3-30.363 52.07-32.615 55.324-3.501 5.059-6.243 4.2-11.509-3.607z" fill="#fff"/><path d="M132.993 94.31c-4.51-13.275-5.688-19.821-4.45-24.74.717-2.847 1.304-6.764 1.304-8.706 0-2.788 1.376-4.706 6.551-9.127l6.551-5.597.821 4.374c1.435 7.652-.203 25.828-2.973 32.982-3.195 8.251-6.92 13.414-7.804 10.814zM39.974 34.943l-6.957-1.349 3.494-5.41c3.9-6.039 8.972-11.036 17.034-16.784 9.048-6.45 12.771-7.546 27.764-8.17 16.274-.678 23.235.862 33.56 7.424 11.94 7.587 10.382 7.459 23.381 1.926 6.455-2.747 11.956-4.774 12.226-4.503 1.104 1.104-33.812 23.91-35.105 22.93-12.23-9.28-22.768-12.911-34.972-12.05-10.93.772-17.951 3.886-26.069 11.564-3.535 3.344-6.646 6.01-6.913 5.925-.267-.085-3.616-.761-7.443-1.503zM26.64 74.928c-1.041-5.208-.945-21.493.128-21.493.483 0 3.666 1.155 7.073 2.567 5.947 2.465 6.225 2.79 6.953 8.098.694 5.064.452 5.817-2.865 8.917-1.993 1.862-3.623 3.9-3.623 4.527 0 .628-1.556 1.142-3.457 1.142-2.91 0-3.576-.595-4.208-3.758zm48.3 86.492c-4.258-6.815-11.949-19.56-17.09-28.324-5.143-8.762-9.462-15.932-9.6-15.932-.138 0-7.151 2.976-15.586 6.613-8.434 3.638-15.976 6.614-16.76 6.614-.784 0 6.344-5.187 15.84-11.527l17.264-11.527 3.772 3.637c7.665 7.392 14.523 6.97 17.177-1.056 1.106-3.345 1.944-4.121 4.208-3.895 12.514 1.247 20.217.475 27.397-2.747l7.428-3.334 3.652 4.43c2.008 2.437 5.404 5.365 7.545 6.507l3.893 2.076-17.717 30.062c-14.89 25.263-18.193 30.12-20.7 30.428-2.61.321-3.949-1.18-10.723-12.025z" fill="#06f"/><path d="M54.925 103.517c-3.981-4.057-5.795-5.104-8.084-4.667-2.346.449-2.796.163-2.199-1.394.584-1.52-1.223-2.877-8.099-6.077l-8.85-4.12 8.786-.078 8.785-.078-1.871-2.673c-1.03-1.47-1.872-3.634-1.872-4.81 0-2.941 5.944-2.834 11.922.216l4.612 2.353 9.88-7.371c9.572-7.14 9.793-7.416 7.065-8.798-1.55-.785-13.504-6.186-26.565-12.003-13.062-5.816-23.748-11.033-23.748-11.591 0-1.807 6.018-1.143 41.122 4.532l34.508 5.58 7.577-6.01c16.943-13.439 33.416-22.386 37.065-20.131.646.399 1.174 2.015 1.174 3.59 0 2.159-3.485 5.898-14.128 15.158-7.771 6.76-14.832 12.925-15.691 13.7-1.27 1.144-.894 3.523 2.014 12.728 9.137 28.928 9.733 32.364 5.616 32.364-1.002 0-7.34-6.493-14.082-14.43-6.742-7.935-12.667-14.429-13.167-14.429-.499 0-8.748 4.083-18.33 9.073l-17.423 9.072 2.152 7.762 2.153 7.762h-2.595c-1.473 0-4.812-2.26-7.727-5.23z" fill="#5fbcd3"/></svg>