<?xml version="1.0" encoding="UTF-8" standalone="no"?>
<svg
   xmlns:dc="http://purl.org/dc/elements/1.1/"
   xmlns:cc="http://creativecommons.org/ns#"
   xmlns:rdf="http://www.w3.org/1999/02/22-rdf-syntax-ns#"
   xmlns:svg="http://www.w3.org/2000/svg"
   xmlns="http://www.w3.org/2000/svg"
   viewBox="0 0 918.66669 197.33333"
   height="197.33333"
   width="918.66669"
   id="svg2"
   version="1.1">
  <metadata
     id="metadata8">
    <rdf:RDF>
      <cc:Work
         rdf:about="">
        <dc:format>image/svg+xml</dc:format>
        <dc:type
           rdf:resource="http://purl.org/dc/dcmitype/StillImage" />
        <dc:title></dc:title>
      </cc:Work>
    </rdf:RDF>
  </metadata>
  <defs
     id="defs6" />
  <path
     id="path12"
     d="m 166.83901,10.203088 -39.68063,16.834206 c 0,0 -13.37718,-12.625654 -29.459861,-14.72993 C 81.61584,10.203088 69.14049,12.75828 62.527052,15.614083 55.913614,18.469886 37.125437,32.147679 33.518107,44.623028 c 5.26069,0.601222 17.285123,3.306719 17.285123,3.306719 0,0 7.364965,-12.77596 22.245201,-16.683901 15.331152,-3.457024 24.950699,0.450916 24.950699,0.450916 0,0 10.52138,2.855803 19.84031,12.024433 3.60733,-2.254581 48.99957,-33.518107 48.99957,-33.518107 z"
     style="fill:none;stroke:#000000;stroke-width:0;stroke-linecap:butt;stroke-linejoin:miter;stroke-opacity:1;stroke-miterlimit:4;stroke-dasharray:none" />
  <path
     id="path14"
     d="M 129.86388,67.319145 144.4435,54.843796 c 0,0 4.65947,6.763744 2.40489,23.748255 -2.25458,16.984512 -6.61344,22.245199 -6.61344,22.245199 l -5.5613,8.71772 -7.21466,-25.401618 c 0,0 3.45703,-6.012217 2.40489,-16.834207 z"
     style="fill:none;stroke:#000000;stroke-width:0;stroke-linecap:butt;stroke-linejoin:miter;stroke-opacity:1;stroke-miterlimit:4;stroke-dasharray:none" />
  <path
     id="path16"
     d="m 127.45899,121.88001 -36.073298,61.32461 c 0,0 -4.358857,6.16252 -9.769852,-1.35275 C 76.204845,174.3366 49.450481,128.49345 49.450481,128.49345 L 1.5030541,149.08529 50.502619,116.1684 c 0,0 18.186955,23.14704 21.493674,-2.10427 6.463133,1.05214 21.343369,6.61344 38.327877,-5.5613 4.96008,3.30672 2.7055,9.92016 17.13482,13.37718 z"
     style="fill:none;stroke:#000000;stroke-width:0;stroke-linecap:butt;stroke-linejoin:miter;stroke-opacity:1;stroke-miterlimit:4;stroke-dasharray:none" />
  <path
     id="path18"
     d="m 42.837043,68.070672 c 0,0 -0.300611,9.318936 2.104276,12.325044 -2.555192,2.404887 -8.717714,4.058247 -7.966187,9.469241 -4.809773,0.150306 -8.567409,0.150306 -8.567409,0.150306 0,0 -4.659468,-14.279014 -1.052138,-28.407723 7.515271,3.60733 15.481458,6.463132 15.481458,6.463132 z"
     style="fill:none;stroke:#000000;stroke-width:0;stroke-linecap:butt;stroke-linejoin:miter;stroke-opacity:1;stroke-miterlimit:4;stroke-dasharray:none" />
  <path
     id="path20"
     d="m 23.898561,96.32809 21.794285,10.07046 -1.65336,4.50917 6.914049,-1.20245 10.82199,10.52138 c 0,0 7.364965,1.50306 5.5613,-3.45702 -1.803665,-4.96008 -3.60733,-12.92627 -3.60733,-12.92627 L 98.299741,86.107322 122.048,114.06413 c 0,0 7.81588,5.7116 7.21466,-4.20855 -2.40489,-10.070465 -11.72383,-39.07941 -11.72383,-39.07941 l 30.06109,-26.002837 c 0,0 7.36496,-13.828098 -9.92016,-7.966187 C 122.34861,43.57089 101.75677,61.60754 101.75677,61.60754 L 28.708334,49.883717 c 0,0 -5.861911,1.503054 -4.358857,3.457025 1.503054,1.95397 53.208117,24.349477 53.208117,24.349477 l -18.03665,13.226876 c 0,0 -12.325044,-7.064354 -16.533596,-3.90794 -4.208551,3.156413 1.65336,9.16863 1.65336,9.16863 z"
     style="fill:none;stroke:#000000;stroke-width:0;stroke-linecap:butt;stroke-linejoin:miter;stroke-opacity:1;stroke-miterlimit:4;stroke-dasharray:none" />
  <path
     id="path22"
     d="m 295.35014,47.779442 c 0,0 -10.82199,0.30061 -11.87413,7.966186 0.15031,8.116493 5.11038,11.723823 10.22077,11.874128 5.11038,0.150306 13.07657,-3.457024 13.07657,-9.469241 0,-6.012216 -5.86191,-11.122601 -11.42321,-10.371073 z"
     style="fill:none;stroke:#000000;stroke-width:0;stroke-linecap:butt;stroke-linejoin:miter;stroke-opacity:1;stroke-miterlimit:4;stroke-dasharray:none" />
  <path
     id="path22-3"
     d="m 396.88176,48.115218 c 0,0 -10.82199,0.30061 -11.87413,7.966186 0.15031,8.116492 5.11038,11.723822 10.22077,11.874127 5.11038,0.150306 13.07657,-3.457024 13.07657,-9.469241 0,-6.012215 -5.86191,-11.1226 -11.42321,-10.371072 z"
     style="fill:none;stroke:#000000;stroke-width:0;stroke-linecap:butt;stroke-linejoin:miter;stroke-opacity:1;stroke-miterlimit:4;stroke-dasharray:none" />
  <path
     id="path22-6"
     d="m 775.80171,48.566134 c 0,0 -10.82199,0.30061 -11.87413,7.966186 0.15031,8.116493 5.11038,11.723823 10.22077,11.874128 5.11038,0.150306 13.07657,-3.457024 13.07657,-9.469241 0,-6.012216 -5.86191,-11.122601 -11.42321,-10.371073 z"
     style="fill:none;stroke:#000000;stroke-width:0;stroke-linecap:butt;stroke-linejoin:miter;stroke-opacity:1;stroke-miterlimit:4;stroke-dasharray:none" />
  <path
     id="path22-7"
     d="m 878.57602,91.841869 c 0,0 -9.16406,0.328407 -10.05501,8.702811 0.12729,8.86702 4.32747,12.80792 8.65494,12.97212 4.32747,0.16421 11.07323,-3.77669 11.07323,-10.34485 0,-6.568164 -4.96386,-12.151103 -9.67316,-11.330081 z"
     style="fill:none;stroke:#000000;stroke-width:0;stroke-linecap:butt;stroke-linejoin:miter;stroke-opacity:1;stroke-miterlimit:4;stroke-dasharray:none" />
  <path
     id="path57"
     d="m 207.27117,60.254791 27.35558,68.088349 16.98451,0.30061 27.50589,-68.388959 h -20.74214 l -13.8281,39.530324 -16.08268,-39.68063 z"
     style="fill:none;stroke:#000000;stroke-width:0;stroke-linecap:butt;stroke-linejoin:miter;stroke-opacity:1;stroke-miterlimit:4;stroke-dasharray:none" />
  <path
     id="path59"
     d="m 284.52815,76.487776 0.45091,51.855364 c 0,0 19.99062,0.60122 19.99062,-0.1503 0,-0.75153 0,-52.155981 0,-52.155981 z"
     style="fill:none;stroke:#000000;stroke-width:0;stroke-linecap:butt;stroke-linejoin:miter;stroke-opacity:1;stroke-miterlimit:4;stroke-dasharray:none" />
  <path
     id="path61"
     d="m 351.56436,80.846633 c 0,0 -4.50916,-6.312828 -15.93237,-6.312828 -11.42321,0 -20.14093,17.886344 -20.14093,17.886344 0,0 -3.45702,9.769851 0.15031,20.591841 3.60733,10.82199 17.58573,17.43543 17.58573,17.43543 0,0 13.22688,1.05214 18.18696,-6.31283 -0.30061,3.60733 0.1503,5.26069 0.1503,5.26069 l 21.04276,-0.1503 -0.45092,-53.959648 h -21.04275 z"
     style="fill:none;stroke:#000000;stroke-width:0;stroke-linecap:butt;stroke-linejoin:miter;stroke-opacity:1;stroke-miterlimit:4;stroke-dasharray:none" />
  <path
     id="path63"
     d="m 341.94482,91.067401 c 0,0 -7.96619,0.751527 -8.86802,11.723819 -0.90184,10.9723 10.97229,10.9723 10.97229,10.9723 0,0 8.11649,1.50305 8.2668,-10.52138 0.15031,-12.024434 -10.37107,-12.174739 -10.37107,-12.174739 z"
     style="fill:none;stroke:#000000;stroke-width:0;stroke-linecap:butt;stroke-linejoin:miter;stroke-opacity:1;stroke-miterlimit:4;stroke-dasharray:none" />
  <path
     id="path65"
     d="m 385.834,76.33747 -0.45092,50.0517 c 0,0 0.90183,7.06436 -11.27291,8.1165 3.45703,7.51527 6.61344,15.48145 6.61344,15.48145 0,0 16.83421,4.65947 23.74826,-12.77596 0.75153,-6.61344 1.65336,-61.174301 1.65336,-61.174301 z"
     style="fill:none;stroke:#000000;stroke-width:0;stroke-linecap:butt;stroke-linejoin:miter;stroke-opacity:1;stroke-miterlimit:4;stroke-dasharray:none" />
  <path
     id="path67"
     d="m 433.48081,97.530534 c 0,0 16.38329,1.052137 16.08268,0.30061 -0.30061,-0.751527 -1.35275,-6.463132 -7.81588,-6.914049 -6.46313,-0.450916 -8.2668,6.613439 -8.2668,6.613439 z"
     style="fill:none;stroke:#000000;stroke-width:0;stroke-linecap:butt;stroke-linejoin:miter;stroke-opacity:1;stroke-miterlimit:4;stroke-dasharray:none" />
  <path
     id="path69"
     d="m 436.18631,107.601 30.66231,-0.15031 c 0,0 4.96007,-11.272905 -3.00611,-20.892452 -7.96619,-9.619546 -12.17474,-12.325044 -22.2452,-12.325044 -10.07047,0 -26.90467,8.717714 -27.5059,28.107116 -0.60122,19.3894 18.33727,28.70833 28.40773,28.25741 10.07046,-0.45091 19.5397,-3.0061 22.2452,-7.21466 -4.05825,-5.7116 -8.56741,-13.52748 -8.56741,-13.52748 0,0 0,2.40488 -10.82199,2.70549 -10.82199,0.30062 -9.16863,-4.96007 -9.16863,-4.96007 z"
     style="fill:none;stroke:#000000;stroke-width:0;stroke-linecap:butt;stroke-linejoin:miter;stroke-opacity:1;stroke-miterlimit:4;stroke-dasharray:none" />
  <path
     id="path71"
     d="m 506.07833,93.772898 c 0,0 -19.99062,-8.717714 -15.78207,-2.404886 4.20855,6.463132 29.15925,5.5613 28.85864,19.389398 -0.30061,13.8281 -15.48146,19.84031 -25.85253,19.69001 -10.37108,-0.15031 -22.69612,-6.76374 -23.59795,-9.46924 2.10427,-3.75764 11.57351,-9.92016 11.57351,-9.92016 0,0 8.1165,4.80977 12.17474,5.71161 4.05825,0.90183 5.71161,-3.60733 5.71161,-3.60733 0,0 1.05214,-3.45703 -8.71771,-3.45703 -7.66558,-3.75763 -17.13482,-2.7055 -19.53971,-16.232983 -2.40489,-13.527487 17.28512,-19.239093 23.74826,-19.088787 6.46313,0.150305 18.33726,3.156413 22.69611,9.018325 -2.10427,2.254581 -11.2729,10.371073 -11.2729,10.371073 z"
     style="fill:none;stroke:#000000;stroke-width:0;stroke-linecap:butt;stroke-linejoin:miter;stroke-opacity:1;stroke-miterlimit:4;stroke-dasharray:none" />
  <path
     id="path73"
     d="m 560.48889,60.555402 -0.45092,67.938048 20.59184,0.30061 0.15031,-32.46597 11.72382,18.03665 h 6.31283 l 12.62565,-18.337261 -0.60122,32.766581 h 21.49368 L 631.43304,59.803875 613.697,59.95418 597.16341,88.662514 579.12676,60.705707 Z"
     style="fill:none;stroke:#000000;stroke-width:0;stroke-linecap:butt;stroke-linejoin:miter;stroke-opacity:1;stroke-miterlimit:4;stroke-dasharray:none" />
  <path
     id="path75"
     d="m 655.1813,63.711815 c 0.90183,-0.450916 18.93848,-15.180846 18.93848,-15.180846 l 8.56741,11.1226 -21.94459,13.076571 z"
     style="fill:none;stroke:#000000;stroke-width:0;stroke-linecap:butt;stroke-linejoin:miter;stroke-opacity:1;stroke-miterlimit:4;stroke-dasharray:none" />
  <path
     id="path77"
     d="m 698.61956,76.638081 17.58574,24.499779 -18.63787,27.50589 23.14703,-0.1503 6.31283,-10.82199 6.16252,11.57352 24.65009,-0.30062 -19.2391,-26.90466 18.03665,-25.551924 -24.19917,-0.450917 -4.50916,10.371074 -5.11039,-9.920157 z"
     style="fill:none;stroke:#000000;stroke-width:0;stroke-linecap:butt;stroke-linejoin:miter;stroke-opacity:1;stroke-miterlimit:4;stroke-dasharray:none" />
  <path
     id="path79"
     d="m 833.89444,97.079617 c 0,0 -1.50306,-6.162522 -10.22077,-5.260689 -8.71772,0.901832 -8.71772,7.815881 -8.56741,12.325042 0.1503,4.50916 5.7116,8.86802 10.82199,8.56741 5.11038,-0.30061 8.11649,-4.20855 8.11649,-4.20855 l 10.9723,12.47535 c 0,0 -2.7055,10.52138 -22.69612,9.46924 -19.99062,-1.05214 -26.30345,-14.12871 -27.05498,-25.85253 -0.75152,-11.723824 5.71161,-30.662306 26.30345,-29.910779 20.59184,0.751527 24.04887,8.717714 24.04887,8.717714 z"
     style="fill:none;stroke:#000000;stroke-width:0;stroke-linecap:butt;stroke-linejoin:miter;stroke-opacity:1;stroke-miterlimit:4;stroke-dasharray:none" />
  <path
     id="path81"
     d="m 878.08423,75.435638 c 0,0 -10.9723,-2.104276 -20.74215,7.064354 -9.76985,9.16863 -7.51527,27.806498 -7.51527,27.806498 0,0 2.55519,11.1226 14.72993,15.93238 12.17474,4.80977 21.94459,5.26069 29.45986,0.30061 7.51527,-4.96008 12.02443,-9.01833 13.67779,-18.18696 1.65336,-9.168627 -1.95397,-17.736036 -6.16252,-23.748252 -4.20855,-6.012217 -16.23298,-8.868019 -23.44764,-9.16863 z"
     style="fill:none;stroke:#000000;stroke-width:0;stroke-linecap:butt;stroke-linejoin:miter;stroke-opacity:1;stroke-miterlimit:4;stroke-dasharray:none" />
  <path
     id="path67-3"
     d="m 659.70946,97.211827 c 0,0 16.38329,1.05214 16.08268,0.30061 -0.30061,-0.75152 -1.35275,-6.46313 -7.81588,-6.914047 -6.46313,-0.450916 -8.2668,6.613437 -8.2668,6.613437 z"
     style="fill:none;stroke:#000000;stroke-width:0;stroke-linecap:butt;stroke-linejoin:miter;stroke-opacity:1;stroke-miterlimit:4;stroke-dasharray:none" />
  <path
     id="path69-5"
     d="m 662.41496,107.2823 30.66231,-0.15031 c 0,0 4.96007,-11.27291 -3.00611,-20.892457 -7.96619,-9.619546 -12.17474,-12.325044 -22.2452,-12.325044 -10.07047,0 -26.90467,8.717714 -27.5059,28.107121 -0.60122,19.3894 18.33727,28.70833 28.40773,28.25741 10.07046,-0.45091 19.5397,-3.0061 22.2452,-7.21466 -4.05825,-5.7116 -8.56741,-13.52748 -8.56741,-13.52748 0,0 0,2.40488 -10.82199,2.70549 -10.82199,0.30062 -9.16863,-4.96007 -9.16863,-4.96007 z"
     style="fill:none;stroke:#000000;stroke-width:0;stroke-linecap:butt;stroke-linejoin:miter;stroke-opacity:1;stroke-miterlimit:4;stroke-dasharray:none" />
  <path
     id="path59-6"
     d="m 766.06493,75.443916 0.45091,51.855364 c 0,0 19.99062,0.60122 19.99062,-0.1503 0,-0.75153 0,-52.155981 0,-52.155981 z"
     style="fill:none;stroke:#000000;stroke-width:0;stroke-linecap:butt;stroke-linejoin:miter;stroke-opacity:1;stroke-miterlimit:4;stroke-dasharray:none" />
  <path
     id="path126"
     d="m 222.42699,95.176642 c -7.11368,-17.677143 -12.9305,-32.568846 -12.92627,-33.092672 0.004,-0.523827 4.16105,-0.794377 9.23736,-0.601222 l 9.22965,0.351191 7.90517,19.530077 c 4.34784,10.741542 8.24874,19.534414 8.66866,19.539704 0.41992,0.005 3.87215,-8.918515 7.67162,-19.830688 l 6.90812,-19.840315 h 8.86198 c 4.87408,0 8.86757,0.405825 8.87442,0.901832 0.007,0.496008 -5.80997,15.375869 -12.92627,33.066357 l -12.93871,32.164524 -7.81588,-0.0243 -7.81588,-0.0243 z"
     style="opacity:1;fill:#ffffff;fill-opacity:1;stroke-width:0;stroke-miterlimit:4;stroke-dasharray:none" />
  <path
     id="path128"
     d="m 286.05277,113.83961 c -0.42871,-7.44012 -0.78194,-18.474764 -0.78495,-24.521438 -0.006,-12.700025 -0.2341,-12.453692 11.51609,-12.453692 h 7.71754 v 25.25131 25.25131 h -8.83461 -8.8346 z"
     style="opacity:1;fill:#ffffff;fill-opacity:1;stroke-width:0;stroke-miterlimit:4;stroke-dasharray:none" />
  <path
     id="path130"
     d="m 288.4939,64.539436 c -1.12083,-0.82668 -2.55313,-3.310094 -3.18288,-5.518699 -0.9948,-3.488862 -0.76479,-4.395867 1.75339,-6.914049 5.85386,-5.853858 18.63948,-2.068344 18.63948,5.518699 0,4.21464 -5.26113,8.417103 -10.53751,8.417103 -2.54903,0 -5.55165,-0.676374 -6.67248,-1.503054 z"
     style="opacity:1;fill:#ffffff;fill-opacity:1;stroke-width:0;stroke-miterlimit:4;stroke-dasharray:none" />
  <path
     id="path132"
     d="m 330.23669,127.55209 c -6.36244,-3.9828 -12.45609,-11.15709 -13.83914,-16.29334 -2.33863,-8.685 -0.91138,-17.627754 3.87852,-24.301758 2.32259,-3.236178 6.02612,-7.101434 8.23006,-8.589458 6.30311,-4.255648 15.37272,-3.240459 21.38755,2.393976 l 2.7055,2.534392 v -3.215711 c 0,-3.194322 0.0588,-3.215711 8.83827,-3.215711 h 8.83827 l 0.78128,11.006715 c 0.4297,6.053693 0.78127,17.687335 0.78127,25.852535 v 14.84581 h -9.61954 c -9.45922,0 -9.61955,-0.0501 -9.61955,-3.00611 0,-1.65336 -0.5411,-3.0061 -1.20244,-3.0061 -0.66135,0 -1.20244,0.5272 -1.20244,1.17156 0,1.71696 -6.26385,4.66769 -11.5976,5.46331 -3.40395,0.50776 -5.62487,0.0721 -8.36001,-1.64011 z m 19.46973,-15.00802 c 6.06814,-5.2196 4.0732,-18.270974 -3.25686,-21.307187 -4.80939,-1.992112 -9.15695,-0.534224 -11.91983,3.997127 -4.70386,7.71472 -2.23697,16.62777 5.19707,18.77735 5.77315,1.66933 6.44853,1.57002 9.97962,-1.46729 z"
     style="opacity:1;fill:#ffffff;fill-opacity:1;stroke-width:0;stroke-miterlimit:4;stroke-dasharray:none" />
  <path
     id="path134"
     d="m 379.1092,143.44723 c -3.03522,-6.86163 -3.09532,-8.86547 -0.26587,-8.86547 1.20741,0 3.36072,-1.24055 4.78514,-2.75677 2.46198,-2.62066 2.6059,-4.03064 2.9151,-28.55803 l 0.32525,-25.801258 9.19398,-0.348942 9.19398,-0.348941 -0.46473,14.778261 c -0.25561,8.128044 -0.6759,21.90887 -0.93397,30.62406 -0.41321,13.954 -0.7848,16.28898 -3.11244,19.55785 -3.40968,4.78845 -8.32904,7.28309 -14.36206,7.28309 -4.56792,0 -4.93865,-0.28356 -7.27438,-5.56385 z"
     style="opacity:1;fill:#ffffff;fill-opacity:1;stroke-width:0;stroke-miterlimit:4;stroke-dasharray:none" />
  <path
     id="path136"
     d="m 391.67859,65.792602 c -3.55654,-2.039674 -5.32975,-4.772873 -5.37275,-8.281462 -0.0849,-6.926002 10.9677,-10.756514 17.09657,-5.925187 5.68666,4.482734 3.91308,11.711574 -3.57159,14.557241 -3.71137,1.411061 -5.19146,1.347408 -8.15223,-0.350592 z"
     style="opacity:1;fill:#ffffff;fill-opacity:1;stroke-width:0;stroke-miterlimit:4;stroke-dasharray:none" />
  <path
     id="path138"
     d="m 433.26572,127.70726 c -10.22219,-3.61052 -18.11262,-14.42424 -18.13278,-24.85074 -0.0187,-9.690754 7.22852,-20.870096 16.15917,-24.926522 5.78969,-2.629756 14.84039,-2.910139 20.3002,-0.628885 4.42547,1.84908 13.75188,11.838606 14.74427,15.792601 0.35912,1.430846 0.48207,4.993084 0.27322,7.916086 l -0.37973,5.31454 -15.33115,0.33654 c -14.23235,0.31241 -15.33115,0.503 -15.33115,2.65915 0,3.11812 7.18242,4.93398 14.71328,3.7198 l 5.69496,-0.91818 3.58628,5.5132 c 4.33365,6.66211 3.7262,7.62094 -6.51111,10.27744 -8.75571,2.27204 -12.89374,2.22916 -19.78546,-0.20503 z M 449.7566,97.065528 c 0.21359,-1.109096 -0.72712,-3.132006 -2.09047,-4.495354 -4.22094,-4.220943 -12.40499,-2.682379 -14.41617,2.710173 -0.91823,2.462041 -0.55554,2.671503 5.77943,3.337783 9.12378,0.95959 10.27551,0.792894 10.72721,-1.552602 z"
     style="opacity:1;fill:#ffffff;fill-opacity:1;stroke-width:0;stroke-miterlimit:4;stroke-dasharray:none" />
  <path
     id="path140"
     d="m 485.03911,127.92646 c -6.57093,-1.8143 -13.39804,-5.23154 -13.39804,-6.70627 0,-1.16538 8.27434,-8.28241 9.62922,-8.28241 0.62064,0 3.51114,1.1576 6.42332,2.57245 5.81319,2.82427 10.81166,2.42829 12.11167,-0.95948 1.08575,-2.82943 -0.76751,-4.25731 -7.89216,-6.08064 -11.19424,-2.86481 -16.05595,-5.64889 -18.36626,-10.517492 -2.58905,-5.456012 -1.80261,-11.219895 2.02056,-14.80898 4.09149,-3.840972 12.93949,-7.425711 18.40122,-7.455193 5.99775,-0.03238 15.83475,2.854368 19.38309,5.688121 l 2.63125,2.101352 -5.09342,4.381384 -5.09342,4.381385 -7.51248,-2.463107 c -5.58863,-1.832336 -7.86077,-2.11482 -8.87251,-1.103077 -2.3842,2.384197 2.33487,5.91704 12.36633,9.257823 14.35498,4.780644 18.42271,9.255184 15.4783,17.026284 -4.14427,10.93787 -18.55719,16.73936 -32.21667,12.96785 z"
     style="opacity:1;fill:#ffffff;fill-opacity:1;stroke-width:0;stroke-miterlimit:4;stroke-dasharray:none" />
  <path
     id="path142"
     d="m 561.03831,112.74899 c 0.4323,-8.03995 0.78601,-22.920189 0.78601,-33.067188 V 61.232717 h 8.19062 8.19063 l 8.9434,13.94243 c 4.91887,7.668337 9.30885,14.168296 9.75552,14.444354 0.44667,0.276057 4.50528,-5.993411 9.01912,-13.93215 l 8.20699,-14.434074 8.11649,-0.01028 8.1165,-0.01028 0.004,15.932374 c 0.002,8.762805 0.35713,23.643039 0.78826,33.067189 l 0.78381,17.13482 h -9.77357 -9.77357 l -0.33363,-16.98202 -0.33363,-16.982019 -6.59127,9.767359 c -8.63972,12.80288 -9.8843,12.83334 -18.32278,0.44842 l -6.34947,-9.318932 -0.33454,16.533592 -0.33455,16.5336 h -9.7704 -9.7704 z"
     style="opacity:1;fill:#ffffff;fill-opacity:1;stroke-width:0;stroke-miterlimit:4;stroke-dasharray:none" />
  <path
     id="path144"
     d="m 663.43078,128.62897 c -11.89881,-2.83524 -22.20472,-14.73609 -22.2385,-25.6801 -0.0166,-5.377562 2.99644,-13.123563 6.86096,-17.63839 5.90133,-6.894375 12.5529,-10.032772 21.10823,-9.959445 7.51194,0.06438 10.41376,1.435903 16.49197,7.794764 6.24411,6.532432 7.72697,10.409545 7.3703,19.270601 l -0.1331,3.30672 h -15.63176 c -14.49033,0 -15.63177,0.16485 -15.63177,2.25765 0,4.14825 3.04403,5.30942 12.35269,4.71203 l 8.72098,-0.55968 3.39498,5.453 c 3.22099,5.17355 3.28373,5.53436 1.22414,7.04037 -4.25126,3.1086 -17.98427,5.40948 -23.88912,4.00248 z m 13.13953,-31.181622 c 0.36069,-0.583611 -0.4583,-2.477459 -1.81998,-4.208552 -4.33696,-5.513552 -15.5281,-3.314588 -15.5281,3.051141 0,1.943317 1.03533,2.218523 8.34613,2.218523 4.59038,0 8.64125,-0.4775 9.00195,-1.061112 z"
     style="opacity:1;fill:#ffffff;fill-opacity:1;stroke-width:0;stroke-miterlimit:4;stroke-dasharray:none" />
  <path
     id="path146"
     d="m 658.6795,67.358059 -1.80692,-3.494205 8.54876,-6.907079 8.54876,-6.90708 2.27982,2.886014 c 5.02676,6.363355 5.07525,6.243841 -4.97782,12.268423 -5.18369,3.106473 -9.73107,5.648131 -10.10528,5.648131 -0.37422,0 -1.49351,-1.572391 -2.48732,-3.494204 z"
     style="opacity:1;fill:#ffffff;fill-opacity:1;stroke-width:0;stroke-miterlimit:4;stroke-dasharray:none" />
  <path
     id="path148"
     d="m 730.74505,122.51282 c -1.68805,-3.3312 -3.59874,-5.72943 -4.24599,-5.32941 -0.64725,0.40002 -2.26228,2.855 -3.58896,5.4555 l -2.41214,4.72819 h -10.2673 c -7.88041,0 -10.0632,-0.34942 -9.38939,-1.50306 0.48284,-0.82667 4.37095,-6.54855 8.64024,-12.71528 8.91375,-12.87535 9.0276,-11.05492 -1.61127,-25.762901 l -6.74076,-9.318936 h 10.7285 10.7285 l 2.16891,4.809774 c 1.19289,2.645375 2.57422,4.809773 3.06962,4.809773 0.49539,0 1.90123,-2.43292 3.1241,-5.406488 l 2.22338,-5.406488 8.61937,-0.0045 c 13.42805,-0.007 13.36624,-0.22194 3.82809,13.308964 l -8.40685,11.926042 9.00405,12.5009 9.00405,12.50089 -3.65939,0.73188 c -2.01267,0.40254 -6.82923,0.73188 -10.70349,0.73188 h -7.0441 z"
     style="opacity:1;fill:#ffffff;fill-opacity:1;stroke-width:0;stroke-miterlimit:4;stroke-dasharray:none" />
  <path
     id="path150"
     d="M 767.44212,101.51457 V 76.86448 l 2.7055,-0.01045 c 1.48802,-0.0057 5.54627,-0.351668 9.01833,-0.768711 l 6.31282,-0.758259 v 25.4188 25.4188 h -9.01832 -9.01833 z"
     style="opacity:1;fill:#ffffff;fill-opacity:1;stroke-width:0;stroke-miterlimit:4;stroke-dasharray:none" />
  <path
     id="path152"
     d="m 769.00733,65.439775 c -3.14432,-2.202371 -4.59526,-8.006799 -2.82725,-11.310352 0.71662,-1.339014 3.46972,-3.018024 6.118,-3.731132 5.9162,-1.593068 10.59804,0.258404 12.92373,5.1108 1.95293,4.074643 0.46286,7.338474 -4.52874,9.919732 -4.45712,2.304864 -8.40544,2.308565 -11.68574,0.01094 z"
     style="opacity:1;fill:#ffffff;fill-opacity:1;stroke-width:0;stroke-miterlimit:4;stroke-dasharray:none" />
  <path
     id="path154"
     d="m 816.40261,128.45943 c -12.70952,-2.99274 -20.10185,-12.44657 -20.10185,-25.70765 0,-15.558367 10.74017,-27.060064 25.28988,-27.083037 5.65399,-0.0089 15.84861,2.703523 19.73718,5.251406 l 3.13277,2.052675 -5.03671,5.97324 c -4.5719,5.422002 -5.22156,5.805951 -7.03978,4.160488 -1.15988,-1.049683 -4.27925,-1.812752 -7.41039,-1.812752 -7.16632,0 -10.6363,3.4756 -10.6363,10.65353 0,8.87069 8.14872,14.30249 15.76011,10.50543 2.11666,-1.05593 3.99966,-1.91987 4.18444,-1.91987 0.18479,0 2.34481,2.45152 4.80005,5.44781 l 4.46407,5.44781 -2.67879,2.85145 c -4.45579,4.74297 -14.66485,6.48706 -24.46468,4.17947 z"
     style="opacity:1;fill:#ffffff;fill-opacity:1;stroke-width:0;stroke-miterlimit:4;stroke-dasharray:none" />
  <path
     id="path156"
     d="m 866.83974,125.62663 c -8.3776,-3.44461 -11.07791,-5.71575 -14.29842,-12.02593 -1.97337,-3.86659 -2.28335,-6.0866 -1.66969,-11.95785 1.649,-15.776705 9.28485,-23.765947 23.48142,-24.568125 14.80139,-0.836354 23.90975,3.562971 29.26578,14.135331 3.78836,7.477925 4.27769,14.671324 1.45719,21.421724 -2.37979,5.69564 -4.72911,8.29423 -11.31215,12.51238 -7.03871,4.51013 -16.70712,4.68338 -26.92413,0.48247 z m 18.34957,-14.59941 c 3.06629,-2.58011 3.69959,-3.99089 3.69959,-8.24151 0,-10.746454 -10.66641,-15.439818 -18.12915,-7.977076 -3.76826,3.768264 -4.26449,6.381296 -2.2287,11.735836 3.13188,8.23747 9.99967,10.08559 16.65826,4.48275 z"
     style="opacity:1;fill:#ffffff;fill-opacity:1;stroke-width:0;stroke-miterlimit:4;stroke-dasharray:none" />
  <path
     id="path158"
     d="m 42.368808,45.264194 c -3.637391,-0.672796 -6.810435,-1.384897 -7.051208,-1.582449 -0.240774,-0.197551 0.719872,-2.232288 2.134769,-4.52164 4.061855,-6.572219 17.26831,-18.204309 24.951392,-21.976894 6.274944,-3.081153 8.515044,-3.492218 21.105901,-3.873001 16.870008,-0.510197 23.462458,1.167772 35.404838,9.011558 4.39005,2.883394 8.41572,5.242536 8.94593,5.242536 0.53021,0 5.97252,-2.172307 12.09403,-4.827349 6.1215,-2.655043 11.54613,-4.684166 12.05473,-4.509163 0.5086,0.175003 -6.90826,5.621087 -16.4819,12.10241 l -17.40664,11.784222 -3.95763,-3.018634 c -2.1767,-1.66025 -7.1814,-4.528202 -11.12156,-6.373227 -6.292967,-2.946757 -8.552707,-3.349896 -18.587136,-3.31595 -13.972573,0.04727 -19.991199,2.40261 -28.89733,11.30874 -3.348425,3.348424 -6.197553,6.016958 -6.331396,5.930076 -0.133844,-0.08688 -3.219399,-0.708439 -6.85679,-1.381235 z"
     style="opacity:1;fill:#ffffff;fill-opacity:1;stroke-width:0;stroke-miterlimit:4;stroke-dasharray:none" />
  <path
     id="path160"
     d="M 28.332725,85.582194 C 27.302784,81.599003 27.060641,65.32057 28.017083,64.362671 c 0.373349,-0.373917 3.711193,0.51369 7.417431,1.972461 l 6.738614,2.652311 0.398451,5.739485 c 0.353713,5.095048 0.02717,6.013854 -2.908268,8.183068 -1.818695,1.343971 -3.306719,3.239033 -3.306719,4.21125 0,1.159935 -1.23234,1.767667 -3.584421,1.767667 -2.90137,0 -3.747355,-0.630132 -4.439446,-3.306719 z"
     style="opacity:1;fill:#ffffff;fill-opacity:1;stroke-width:0;stroke-miterlimit:4;stroke-dasharray:none" />
  <path
     id="path162"
     d="M 79.880255,176.96789 C 77.315232,173.16516 69.642388,160.5846 62.829491,149.01108 56.016594,137.43756 50.302608,127.79632 50.131743,127.58611 c -0.170865,-0.21022 -7.451882,2.66727 -16.180038,6.39443 -8.728155,3.72715 -16.092139,6.55387 -16.364408,6.2816 -0.272269,-0.27226 6.913729,-5.41923 15.968885,-11.43769 l 16.463918,-10.94266 4.123816,3.62076 c 4.99131,4.38243 8.747711,5.93259 12.192865,5.03167 2.657405,-0.69493 6.09311,-5.98551 6.09311,-9.38266 0,-1.57519 0.805691,-1.75644 4.509163,-1.01442 9.001438,1.80351 18.940942,0.85839 26.272746,-2.49822 l 6.96019,-3.18648 4.27598,4.83078 c 2.35179,2.65694 5.78579,5.37542 7.6311,6.04108 3.02248,1.09031 3.21328,1.47965 1.92458,3.92716 -2.79036,5.29946 -30.362328,52.06924 -32.614757,55.32376 -3.501082,5.05869 -6.242908,4.19928 -11.508638,-3.60733 z"
     style="opacity:1;fill:#ffffff;fill-opacity:1;stroke-width:0;stroke-miterlimit:4;stroke-dasharray:none" />
  <path
     id="path164"
     d="m 134.49592,104.51283 c -4.51076,-13.274321 -5.68816,-19.821111 -4.44943,-24.740567 0.71672,-2.846337 1.30312,-6.763668 1.30312,-8.705178 0,-2.788282 1.37661,-4.706095 6.55145,-9.127095 l 6.55144,-5.597075 0.82051,4.373703 c 1.43552,7.651974 -0.20289,25.828553 -2.97296,32.982068 -3.19531,8.251664 -6.9207,13.413924 -7.80413,10.814144 z"
     style="opacity:1;fill:#0066ff;fill-opacity:1;stroke-width:0;stroke-miterlimit:4;stroke-dasharray:none" />
  <path
     id="path166"
     d="m 41.477376,45.146172 -6.957468,-1.348883 3.494433,-5.410995 c 3.899236,-6.037816 8.971584,-11.035551 17.033942,-16.78337 9.047605,-6.450223 12.770758,-7.545848 27.764131,-8.170246 16.27396,-0.677728 23.234246,0.862078 33.560476,7.424498 11.93865,7.587126 10.38096,7.458814 23.38051,1.92593 6.45419,-2.747041 11.95593,-4.773582 12.22609,-4.503424 1.10406,1.104066 -33.81247,23.911025 -35.10516,22.930168 C 104.64353,31.92946 94.105638,28.298655 81.902064,29.16024 70.972206,29.9319 63.950896,33.046418 55.833015,40.723971 c -3.535453,3.343685 -6.646362,6.010049 -6.913133,5.925255 -0.266771,-0.0848 -3.615898,-0.761169 -7.442506,-1.503054 z"
     style="opacity:1;fill:#0066ff;fill-opacity:1;stroke-width:0;stroke-miterlimit:4;stroke-dasharray:none" />
  <path
     id="path168"
     d="m 28.143614,85.131278 c -1.041705,-5.208522 -0.94543,-21.493674 0.127066,-21.493674 0.483227,0 3.666315,1.155445 7.073529,2.567657 5.946896,2.46485 6.225288,2.789094 6.952975,8.098155 0.693993,5.063232 0.451934,5.816577 -2.864977,8.916501 -1.992659,1.862301 -3.623017,3.899677 -3.623017,4.5275 0,0.627823 -1.555661,1.141496 -3.457025,1.141496 -2.909913,0 -3.575962,-0.594686 -4.208551,-3.757635 z"
     style="opacity:1;fill:#0066ff;fill-opacity:1;stroke-width:0;stroke-miterlimit:4;stroke-dasharray:none" />
  <path
     id="path170"
     d="m 76.442725,171.62338 c -4.257793,-6.81534 -11.948472,-19.5611 -17.090399,-28.32391 -5.141925,-8.7628 -9.461649,-15.93237 -9.599384,-15.93237 -0.137735,0 -7.15127,2.97605 -15.585633,6.61344 -8.434364,3.63739 -15.976536,6.61344 -16.760384,6.61344 -0.783848,0 6.34401,-5.18707 15.839685,-11.52681 l 17.264861,-11.52681 3.77146,3.63718 c 7.66497,7.39205 14.523342,6.97023 17.17678,-1.05645 1.105941,-3.34549 1.9439,-4.12108 4.208552,-3.89533 12.514267,1.24748 20.21631,0.4752 27.396337,-2.747 l 7.42816,-3.33356 3.65195,4.43044 c 2.00857,2.43675 5.40389,5.36475 7.54516,6.50668 l 3.89322,2.07623 -17.7172,30.06108 c -14.889537,25.26333 -18.193173,30.11967 -20.699464,30.42819 -2.609822,0.32125 -3.949048,-1.18041 -10.723701,-12.02444 z"
     style="opacity:1;fill:#0066ff;fill-opacity:1;stroke-width:0;stroke-miterlimit:4;stroke-dasharray:none" />
  <path
     id="path172"
     d="m 56.428072,113.7197 c -3.98148,-4.05683 -5.795095,-5.10375 -8.083564,-4.66628 -2.346355,0.44853 -2.796594,0.16315 -2.199096,-1.39391 0.583704,-1.52111 -1.223202,-2.87695 -8.099169,-6.07732 l -8.850492,-4.119409 8.785898,-0.07838 8.785897,-0.07838 -1.871848,-2.672437 c -1.029517,-1.469842 -1.871849,-3.63424 -1.871849,-4.809773 0,-2.941919 5.943904,-2.834504 11.922309,0.21545 l 4.611841,2.352786 9.880956,-7.37121 C 79.009648,77.881078 79.23146,77.60482 76.503032,76.222753 74.953749,75.437975 62.999439,70.036846 49.937898,64.220245 36.876358,58.403644 26.189643,53.187533 26.189643,52.628889 c 0,-1.806367 6.018278,-1.143072 41.122142,4.532214 l 34.508705,5.579065 7.57681,-6.009675 c 16.94233,-13.438095 33.41614,-22.385478 37.06441,-20.130717 0.64609,0.399302 1.17471,2.015147 1.17471,3.590765 0,2.158069 -3.48533,5.897119 -14.12871,15.157213 -7.77079,6.760848 -14.83165,12.925776 -15.69079,13.699838 -1.27015,1.144369 -0.8938,3.523154 2.01382,12.728631 9.13698,28.927587 9.73336,32.363997 5.61673,32.363997 -1.00259,0 -7.33951,-6.49319 -14.08204,-14.429317 -6.74254,-7.936126 -12.66764,-14.42932 -13.166893,-14.42932 -0.499254,0 -8.748011,4.082507 -18.330573,9.072238 l -17.422841,9.072239 2.152329,7.76197 2.152329,7.76197 h -2.594282 c -1.473059,0 -4.812778,-2.26049 -7.727427,-5.2303 z"
     style="opacity:1;fill:#5fbcd3;fill-opacity:1;stroke-width:0;stroke-miterlimit:4;stroke-dasharray:none" />
</svg>
