<?xml version="1.0" encoding="UTF-8" standalone="no"?>
<svg
   xmlns:dc="http://purl.org/dc/elements/1.1/"
   xmlns:cc="http://creativecommons.org/ns#"
   xmlns:rdf="http://www.w3.org/1999/02/22-rdf-syntax-ns#"
   xmlns:svg="http://www.w3.org/2000/svg"
   xmlns="http://www.w3.org/2000/svg"
   viewBox="0 0 165.33595 175.37967"
   height="175.37967"
   width="165.33595"
   id="svg2"
   version="1.1">
  <metadata
     id="metadata8">
    <rdf:RDF>
      <cc:Work
         rdf:about="">
        <dc:format>image/svg+xml</dc:format>
        <dc:type
           rdf:resource="http://purl.org/dc/dcmitype/StillImage" />
        <dc:title></dc:title>
      </cc:Work>
    </rdf:RDF>
  </metadata>
  <defs
     id="defs6" />
  <path
     id="path12"
     d="M 165.33596,4.6029088e-7 125.65533,16.834206 c 0,0 -13.37718,-12.6256535 -29.459865,-14.7299295 C 80.112786,4.6029088e-7 67.637436,2.5551925 61.023998,5.4109955 54.41056,8.2667985 35.622383,21.944591 32.015053,34.41994 c 5.26069,0.601222 17.285123,3.306719 17.285123,3.306719 0,0 7.364965,-12.77596 22.245201,-16.683901 15.331152,-3.457024 24.950699,0.450916 24.950699,0.450916 0,0 10.521384,2.855803 19.840314,12.024433 C 119.94372,31.263526 165.33596,4.6029088e-7 165.33596,4.6029088e-7 Z"
     style="fill:none;stroke:#000000;stroke-width:0;stroke-linecap:butt;stroke-linejoin:miter;stroke-miterlimit:4;stroke-dasharray:none;stroke-opacity:1" />
  <path
     id="path14"
     d="m 128.36083,57.116057 14.57962,-12.475349 c 0,0 4.65947,6.763744 2.40489,23.748255 -2.25458,16.984512 -6.61344,22.245199 -6.61344,22.245199 l -5.5613,8.71772 -7.21466,-25.401618 c 0,0 3.45703,-6.012217 2.40489,-16.834207 z"
     style="fill:none;stroke:#000000;stroke-width:0;stroke-linecap:butt;stroke-linejoin:miter;stroke-miterlimit:4;stroke-dasharray:none;stroke-opacity:1" />
  <path
     id="path16"
     d="m 125.95594,111.67692 -36.073302,61.32461 c 0,0 -4.358857,6.16252 -9.769852,-1.35275 -5.410995,-7.51527 -32.165359,-53.35842 -32.165359,-53.35842 L 2.788174e-7,138.8822 48.999565,105.96531 c 0,0 18.186955,23.14704 21.493674,-2.10427 6.463133,1.05214 21.343369,6.61344 38.327881,-5.561298 4.96008,3.306718 2.7055,9.920158 17.13482,13.377178 z"
     style="fill:none;stroke:#000000;stroke-width:0;stroke-linecap:butt;stroke-linejoin:miter;stroke-miterlimit:4;stroke-dasharray:none;stroke-opacity:1" />
  <path
     id="path18"
     d="m 41.333989,57.867584 c 0,0 -0.300611,9.318936 2.104276,12.325044 -2.555192,2.404887 -8.717714,4.058247 -7.966187,9.469241 -4.809773,0.150306 -8.567409,0.150306 -8.567409,0.150306 0,0 -4.659468,-14.279014 -1.052138,-28.407723 7.515271,3.60733 15.481458,6.463132 15.481458,6.463132 z"
     style="fill:none;stroke:#000000;stroke-width:0;stroke-linecap:butt;stroke-linejoin:miter;stroke-miterlimit:4;stroke-dasharray:none;stroke-opacity:1" />
  <path
     id="path20"
     d="m 22.395507,86.125002 21.794285,10.07046 -1.65336,4.509168 6.914049,-1.202448 10.82199,10.521378 c 0,0 7.364965,1.50306 5.5613,-3.45702 -1.803665,-4.96008 -3.60733,-12.926268 -3.60733,-12.926268 L 96.796687,75.904234 120.54495,103.86104 c 0,0 7.81588,5.7116 7.21466,-4.208548 -2.40489,-10.070465 -11.72383,-39.07941 -11.72383,-39.07941 l 30.06109,-26.002837 c 0,0 7.36496,-13.828098 -9.92016,-7.966187 -15.33115,6.763744 -35.92299,24.800394 -35.92299,24.800394 L 27.20528,39.680629 c 0,0 -5.861911,1.503054 -4.358857,3.457025 1.503054,1.95397 53.208117,24.349477 53.208117,24.349477 L 58.01789,80.714007 c 0,0 -12.325044,-7.064354 -16.533596,-3.90794 -4.208551,3.156413 1.65336,9.16863 1.65336,9.16863 z"
     style="fill:none;stroke:#000000;stroke-width:0;stroke-linecap:butt;stroke-linejoin:miter;stroke-miterlimit:4;stroke-dasharray:none;stroke-opacity:1" />
  <path
     id="path158"
     d="m 40.865754,35.061106 c -3.637391,-0.672796 -6.810435,-1.384897 -7.051208,-1.582449 -0.240774,-0.197551 0.719872,-2.232288 2.134769,-4.52164 4.061855,-6.572219 17.26831,-18.204309 24.951392,-21.9768935 6.274944,-3.081153 8.515044,-3.492218 21.105901,-3.873001 16.870008,-0.510197 23.462462,1.167772 35.404842,9.0115575 4.39005,2.883394 8.41572,5.242536 8.94593,5.242536 0.53021,0 5.97252,-2.172307 12.09403,-4.827349 6.1215,-2.6550425 11.54613,-4.6841655 12.05473,-4.5091625 0.5086,0.175003 -6.90826,5.6210865 -16.4819,12.1024095 l -17.40664,11.784222 -3.95763,-3.018634 c -2.1767,-1.66025 -7.1814,-4.528202 -11.12156,-6.373227 -6.292971,-2.946757 -8.552711,-3.349896 -18.58714,-3.31595 -13.972573,0.04727 -19.991199,2.40261 -28.89733,11.30874 -3.348425,3.348424 -6.197553,6.016958 -6.331396,5.930076 -0.133844,-0.08688 -3.219399,-0.708439 -6.85679,-1.381235 z"
     style="opacity:1;fill:#ffffff;fill-opacity:1;stroke-width:0;stroke-miterlimit:4;stroke-dasharray:none" />
  <path
     id="path160"
     d="M 26.829671,75.379106 C 25.79973,71.395915 25.557587,55.117482 26.514029,54.159583 c 0.373349,-0.373917 3.711193,0.51369 7.417431,1.972461 l 6.738614,2.652311 0.398451,5.739485 c 0.353713,5.095048 0.02717,6.013854 -2.908268,8.183068 -1.818695,1.343971 -3.306719,3.239033 -3.306719,4.21125 0,1.159935 -1.23234,1.767667 -3.584421,1.767667 -2.90137,0 -3.747355,-0.630132 -4.439446,-3.306719 z"
     style="opacity:1;fill:#ffffff;fill-opacity:1;stroke-width:0;stroke-miterlimit:4;stroke-dasharray:none" />
  <path
     id="path162"
     d="M 78.377201,166.7648 C 75.812178,162.96207 68.139334,150.38151 61.326437,138.80799 54.51354,127.23447 48.799554,117.59323 48.628689,117.38302 c -0.170865,-0.21022 -7.451882,2.66727 -16.180038,6.39443 -8.728155,3.72715 -16.092139,6.55387 -16.364408,6.2816 -0.272269,-0.27226 6.913729,-5.41923 15.968885,-11.43769 l 16.463918,-10.94266 4.123816,3.62076 c 4.99131,4.38243 8.747711,5.93259 12.192865,5.03167 2.657405,-0.69493 6.09311,-5.98551 6.09311,-9.38266 0,-1.57519 0.805691,-1.75644 4.509163,-1.01442 9.001438,1.80351 18.940942,0.85839 26.27275,-2.49822 l 6.96019,-3.18648 4.27598,4.83078 c 2.35179,2.65694 5.78579,5.37542 7.6311,6.04108 3.02248,1.09031 3.21328,1.47965 1.92458,3.92716 -2.79036,5.29946 -30.362332,52.06924 -32.614761,55.32376 -3.501082,5.05869 -6.242908,4.19928 -11.508638,-3.60733 z"
     style="opacity:1;fill:#ffffff;fill-opacity:1;stroke-width:0;stroke-miterlimit:4;stroke-dasharray:none" />
  <path
     id="path164"
     d="m 132.99287,94.309742 c -4.51076,-13.274321 -5.68816,-19.821111 -4.44943,-24.740567 0.71672,-2.846337 1.30312,-6.763668 1.30312,-8.705178 0,-2.788282 1.37661,-4.706095 6.55145,-9.127095 l 6.55144,-5.597075 0.82051,4.373703 c 1.43552,7.651974 -0.20289,25.828553 -2.97296,32.982068 -3.19531,8.251664 -6.9207,13.413924 -7.80413,10.814144 z"
     style="opacity:1;fill:#0066ff;fill-opacity:1;stroke-width:0;stroke-miterlimit:4;stroke-dasharray:none" />
  <path
     id="path166"
     d="m 39.974322,34.943084 -6.957468,-1.348883 3.494433,-5.410995 C 40.410523,22.14539 45.482871,17.147655 53.545229,11.399836 62.592834,4.9496135 66.315987,3.8539885 81.30936,3.2295905 c 16.27396,-0.677728 23.23425,0.862078 33.56048,7.4244975 11.93865,7.587126 10.38096,7.458814 23.38051,1.92593 6.45419,-2.7470405 11.95593,-4.7735815 12.22609,-4.5034235 1.10406,1.104066 -33.81247,23.9110245 -35.10516,22.9301675 -12.2308,-9.28039 -22.768696,-12.911195 -34.97227,-12.04961 -10.929858,0.77166 -17.951168,3.886178 -26.069049,11.563731 -3.535453,3.343685 -6.646362,6.010049 -6.913133,5.925255 -0.266771,-0.0848 -3.615898,-0.761169 -7.442506,-1.503054 z"
     style="opacity:1;fill:#0066ff;fill-opacity:1;stroke-width:0;stroke-miterlimit:4;stroke-dasharray:none" />
  <path
     id="path168"
     d="m 26.64056,74.92819 c -1.041705,-5.208522 -0.94543,-21.493674 0.127066,-21.493674 0.483227,0 3.666315,1.155445 7.073529,2.567657 5.946896,2.46485 6.225288,2.789094 6.952975,8.098155 0.693993,5.063232 0.451934,5.816577 -2.864977,8.916501 -1.992659,1.862301 -3.623017,3.899677 -3.623017,4.5275 0,0.627823 -1.555661,1.141496 -3.457025,1.141496 -2.909913,0 -3.575962,-0.594686 -4.208551,-3.757635 z"
     style="opacity:1;fill:#0066ff;fill-opacity:1;stroke-width:0;stroke-miterlimit:4;stroke-dasharray:none" />
  <path
     id="path170"
     d="m 74.939671,161.42029 c -4.257793,-6.81534 -11.948472,-19.5611 -17.090399,-28.32391 -5.141925,-8.7628 -9.461649,-15.93237 -9.599384,-15.93237 -0.137735,0 -7.15127,2.97605 -15.585633,6.61344 -8.434364,3.63739 -15.976536,6.61344 -16.760384,6.61344 -0.783848,0 6.34401,-5.18707 15.839685,-11.52681 l 17.264861,-11.52681 3.77146,3.63718 c 7.66497,7.39205 14.523342,6.97023 17.17678,-1.05645 1.105941,-3.34549 1.9439,-4.12108 4.208552,-3.89533 12.514267,1.24748 20.21631,0.4752 27.396341,-2.747 l 7.42816,-3.333558 3.65195,4.430438 c 2.00857,2.43675 5.40389,5.36475 7.54516,6.50668 l 3.89322,2.07623 -17.7172,30.06108 c -14.889541,25.26333 -18.193177,30.11967 -20.699468,30.42819 -2.609822,0.32125 -3.949048,-1.18041 -10.723701,-12.02444 z"
     style="opacity:1;fill:#0066ff;fill-opacity:1;stroke-width:0;stroke-miterlimit:4;stroke-dasharray:none" />
  <path
     id="path172"
     d="m 54.925018,103.51661 c -3.98148,-4.056828 -5.795095,-5.103748 -8.083564,-4.666278 -2.346355,0.44853 -2.796594,0.16315 -2.199096,-1.39391 0.583704,-1.52111 -1.223202,-2.87695 -8.099169,-6.07732 l -8.850492,-4.119409 8.785898,-0.07838 8.785897,-0.07838 -1.871848,-2.672437 c -1.029517,-1.469842 -1.871849,-3.63424 -1.871849,-4.809773 0,-2.941919 5.943904,-2.834504 11.922309,0.21545 l 4.611841,2.352786 9.880956,-7.37121 C 77.506594,67.67799 77.728406,67.401732 74.999978,66.019665 73.450695,65.234887 61.496385,59.833758 48.434844,54.017157 35.373304,48.200556 24.686589,42.984445 24.686589,42.425801 c 0,-1.806367 6.018278,-1.143072 41.122142,4.532214 l 34.508709,5.579065 7.57681,-6.009675 c 16.94233,-13.438095 33.41614,-22.385478 37.06441,-20.130717 0.64609,0.399302 1.17471,2.015147 1.17471,3.590765 0,2.158069 -3.48533,5.897119 -14.12871,15.157213 -7.77079,6.760848 -14.83165,12.925776 -15.69079,13.699838 -1.27015,1.144369 -0.8938,3.523154 2.01382,12.728631 9.13698,28.927585 9.73336,32.363995 5.61673,32.363995 -1.00259,0 -7.33951,-6.493188 -14.08204,-14.429315 -6.74254,-7.936126 -12.667644,-14.42932 -13.166897,-14.42932 -0.499254,0 -8.748011,4.082507 -18.330573,9.072238 l -17.422841,9.072239 2.152329,7.761968 2.152329,7.76197 h -2.594282 c -1.473059,0 -4.812778,-2.26049 -7.727427,-5.2303 z"
     style="opacity:1;fill:#5fbcd3;fill-opacity:1;stroke-width:0;stroke-miterlimit:4;stroke-dasharray:none" />
</svg>
